<svg width="24" height="24" version="1.1" viewBox="0 0 4286.25 4286.25" id="svg13" shape-rendering="geometricPrecision" text-rendering="geometricPrecision" image-rendering="optimizeQuality" fill-rule="evenodd" clip-rule="evenodd" xmlns="http://www.w3.org/2000/svg"><defs id="defs4"><style type="text/css" id="style2"/></defs><path d="M2684.917 3661.968h-1212c-47 0-84-37-84-83 0-254-52-479-127-683-77-209-178-398-272-575-159-298-302-565-302-854v-16c4-445 180-799 441-1043 260-244 606-376 952-376 3 0 6 0 8 1h5c364 3 727 154 989 427 234 245 387 586 387 1007 0 289-143 556-301 854-188 352-400 748-400 1258 0 46-37 83-84 83zm-782.634-1663.24h336v-117c0-47 37-84 83-84 47 0 83.748 37.001 84 84l8.634 1613.24h189c21-509 231-902 418-1253 148-277 282-527 282-775 0-374-135-676-341-891-230-241-549-373-870-376h-11c-304 0-609 116-839 331-229 214-383 527-387 921v15c0 248 134 498 282 775 98 184 202 379 282 596 73 199 126 415 136 657h189l-8.634-1613.24c-.252-46.999 37-84 84-84 46 0 83 37 83 84zm344.634 1496.24v-1039h-336v1039zm-625.973 703.986c-47 0-84-107.872-84-153.872 0-46 37-156.845 84-156.845h901c47 0 84 110.845 84 156.845s-37 153.872-84 153.872z" id="path9" fill="#333" fill-rule="nonzero" stroke="#333" stroke-width="125.016" stroke-miterlimit="4" stroke-dasharray="none" stroke-opacity="1"/></svg>